<!-- Generated by IcoMoon.io -->
<svg version="1.1" xmlns="http://www.w3.org/2000/svg" width="32" height="32" viewBox="0 0 32 32">
<title>inst</title>
<path d="M20.8 16c0 1.273-0.506 2.494-1.406 3.394s-2.121 1.406-3.394 1.406-2.494-0.506-3.394-1.406c-0.9-0.9-1.406-2.121-1.406-3.394 0-0.274 0.029-0.541 0.078-0.8h-1.678v6.395c0 0.445 0.36 0.805 0.805 0.805h11.192c0.213-0 0.417-0.085 0.568-0.236s0.235-0.355 0.235-0.569v-6.395h-1.678c0.050 0.259 0.078 0.526 0.078 0.8zM16 19.2c0.42-0 0.837-0.083 1.225-0.244s0.741-0.397 1.038-0.694c0.297-0.297 0.533-0.65 0.694-1.039s0.243-0.805 0.243-1.225-0.083-0.836-0.244-1.225c-0.161-0.388-0.397-0.741-0.694-1.038s-0.65-0.533-1.039-0.694c-0.388-0.161-0.805-0.243-1.225-0.243-0.849 0-1.663 0.338-2.263 0.938s-0.937 1.415-0.937 2.264c0 0.849 0.338 1.663 0.938 2.263s1.415 0.937 2.264 0.937zM19.84 12.64h1.918c0.127 0 0.25-0.050 0.34-0.14s0.141-0.212 0.142-0.34v-1.918c0-0.128-0.051-0.25-0.141-0.341s-0.213-0.141-0.341-0.141h-1.918c-0.128 0-0.25 0.051-0.341 0.141s-0.141 0.213-0.141 0.341v1.918c0.002 0.264 0.218 0.48 0.482 0.48zM16 0.64c-4.074 0-7.981 1.618-10.861 4.499s-4.499 6.787-4.499 10.861c0 4.074 1.618 7.981 4.499 10.861s6.787 4.499 10.861 4.499c2.017 0 4.014-0.397 5.878-1.169s3.557-1.903 4.983-3.33c1.426-1.426 2.558-3.12 3.33-4.983s1.169-3.861 1.169-5.878-0.397-4.014-1.169-5.878c-0.772-1.864-1.903-3.557-3.33-4.983s-3.12-2.558-4.983-3.33c-1.864-0.772-3.861-1.169-5.878-1.169zM24 22.222c0 0.978-0.8 1.778-1.778 1.778h-12.445c-0.978 0-1.778-0.8-1.778-1.778v-12.445c0-0.978 0.8-1.778 1.778-1.778h12.445c0.978 0 1.778 0.8 1.778 1.778v12.445z"></path>
</svg>
