<!-- Generated by IcoMoon.io -->
<svg version="1.1" xmlns="http://www.w3.org/2000/svg" width="32" height="32" viewBox="0 0 32 32">
<title>tw</title>
<path d="M16 0.64c-8.483 0-15.36 6.877-15.36 15.36s6.877 15.36 15.36 15.36c8.483 0 15.36-6.877 15.36-15.36s-6.877-15.36-15.36-15.36zM22.248 13.222c0.006 0.131 0.008 0.262 0.008 0.39 0 4-3.042 8.61-8.606 8.61-1.644 0.003-3.254-0.47-4.637-1.36 0.235 0.029 0.477 0.040 0.722 0.040 1.418 0 2.722-0.482 3.757-1.294-0.631-0.012-1.242-0.221-1.749-0.598s-0.883-0.901-1.077-1.502c0.453 0.086 0.92 0.068 1.365-0.053-0.685-0.138-1.3-0.509-1.743-1.050s-0.684-1.218-0.684-1.916v-0.037c0.408 0.226 0.875 0.363 1.371 0.379-0.642-0.427-1.096-1.084-1.27-1.835s-0.054-1.541 0.334-2.207c0.76 0.934 1.708 1.699 2.782 2.244s2.251 0.858 3.454 0.92c-0.153-0.649-0.087-1.331 0.187-1.938s0.742-1.108 1.33-1.423c0.588-0.315 1.263-0.426 1.921-0.318s1.262 0.432 1.717 0.919c0.677-0.134 1.326-0.382 1.92-0.734-0.226 0.701-0.698 1.296-1.33 1.675 0.6-0.072 1.185-0.233 1.738-0.478-0.406 0.608-0.917 1.138-1.509 1.566z"></path>
</svg>
